<svg width="88" height="32" viewBox="0 0 88 32" fill="none" xmlns="http://www.w3.org/2000/svg">
<path fill-rule="evenodd" clip-rule="evenodd" d="M-0.000650507 16C-0.000650507 15.5286 0.266487 15.0764 0.741996 14.7431C1.2175 14.4097 1.86243 14.2225 2.5349 14.2225L79.0802 14.2225L63.1215 3.03826C62.6454 2.70449 62.3779 2.2518 62.3779 1.77977C62.3779 1.30775 62.6454 0.855055 63.1215 0.521282C63.5976 0.18751 64.2433 0 64.9166 0C65.59 0 66.2357 0.18751 66.7118 0.521282L86.9962 14.7415C87.2324 14.9066 87.4197 15.1028 87.5475 15.3187C87.6754 15.5347 87.7411 15.7662 87.7411 16C87.7411 16.2338 87.6754 16.4653 87.5475 16.6813C87.4197 16.8972 87.2324 17.0934 86.9962 17.2585L66.7118 31.4787C66.2357 31.8125 65.59 32 64.9166 32C64.2433 32 63.5976 31.8125 63.1215 31.4787C62.6454 31.1449 62.3779 30.6923 62.3779 30.2202C62.3779 29.7482 62.6454 29.2955 63.1215 28.9617L79.0802 17.7775L2.5349 17.7775C1.86243 17.7775 1.2175 17.5903 0.741996 17.2569C0.266487 16.9235 -0.000650507 16.4714 -0.000650507 16Z" fill="black"/>
</svg>
