<svg width="33" height="50" viewBox="0 0 33 50" fill="none" xmlns="http://www.w3.org/2000/svg">
<path fill-rule="evenodd" clip-rule="evenodd" d="M16.0727 0C16.5462 0 17.0004 0.188125 17.3353 0.52299C17.6701 0.857855 17.8583 1.31203 17.8583 1.7856V43.9008L29.0933 32.6622C29.4285 32.3269 29.8833 32.1385 30.3575 32.1385C30.8316 32.1385 31.2864 32.3269 31.6217 32.6622C31.957 32.9975 32.1453 33.4522 32.1453 33.9264C32.1453 34.4006 31.957 34.8553 31.6217 35.1906L17.3369 49.4754C17.171 49.6417 16.9739 49.7736 16.757 49.8636C16.5401 49.9537 16.3075 50 16.0727 50C15.8378 50 15.6052 49.9537 15.3883 49.8636C15.1714 49.7736 14.9743 49.6417 14.8085 49.4754L0.52365 35.1906C0.188362 34.8553 -1.11718e-08 34.4006 0 33.9264C1.11718e-08 33.4522 0.188362 32.9975 0.52365 32.6622C0.858938 32.3269 1.31369 32.1385 1.78786 32.1385C2.26202 32.1385 2.71677 32.3269 3.05206 32.6622L14.2871 43.9008V1.7856C14.2871 1.31203 14.4752 0.857855 14.81 0.52299C15.1449 0.188125 15.5991 0 16.0727 0Z" fill="white"/>
</svg>
