<svg width="31" height="24" viewBox="0 0 31 24" fill="none" xmlns="http://www.w3.org/2000/svg">
<path d="M26.2 0C28.52 0 30.4 1.88 30.4 4.2V19.8C30.4 22.12 28.52 24 26.2 24H4.2C3.08609 24 2.0178 23.5575 1.23015 22.7698C0.442499 21.9822 0 20.9139 0 19.8V4.2C0 1.88 1.88 0 4.2 0H26.2ZM28.4 7.4808L15.6816 14.476C15.5507 14.548 15.4054 14.5897 15.2563 14.5981C15.1072 14.6066 14.9581 14.5815 14.82 14.5248L14.7184 14.4768L2 7.48V19.8C2 20.3835 2.23179 20.9431 2.64437 21.3556C3.05695 21.7682 3.61652 22 4.2 22H26.2C26.7835 22 27.3431 21.7682 27.7556 21.3556C28.1682 20.9431 28.4 20.3835 28.4 19.8V7.4808ZM26.2 2H4.2C3.61652 2 3.05695 2.23179 2.64437 2.64437C2.23179 3.05695 2 3.61652 2 4.2V5.1992L15.2 12.4584L28.4 5.1984V4.2C28.4 3.61652 28.1682 3.05695 27.7556 2.64437C27.3431 2.23179 26.7835 2 26.2 2Z" fill="white"/>
</svg>
